<svg width="26" height="26" viewBox="0 0 26 26" fill="none" xmlns="http://www.w3.org/2000/svg">
<path d="M11.8232 3.15375C11.1845 2.42538 10.4227 1.84625 9.58218 1.45003C8.74163 1.05381 7.83906 0.848394 6.92692 0.845729C6.01478 0.843065 5.11126 1.0432 4.26887 1.43451C3.42649 1.82581 2.66204 2.40049 2.01996 3.12512C1.0572 4.21995 0.401827 5.60588 0.134587 7.11215C-0.132653 8.61843 -8.30889e-05 10.1792 0.515963 11.6023C0.608763 11.5898 0.704763 11.5826 0.802363 11.5826H4.49516L6.59436 6.05822C6.77919 5.57205 7.08816 5.15768 7.48259 4.86703C7.87701 4.57638 8.33934 4.42236 8.81168 4.42427C9.28401 4.42618 9.74533 4.58393 10.1379 4.87777C10.5304 5.17161 10.8367 5.58846 11.0184 6.07611L13.2312 12.0157L14.7672 9.26512C14.9657 8.91014 15.2357 8.61203 15.5556 8.3946C15.8755 8.17717 16.2364 8.04645 16.6095 8.01289C16.9827 7.97932 17.3577 8.04385 17.7045 8.20131C18.0514 8.35877 18.3605 8.6048 18.6072 8.91973L20.6936 11.5826H24.8024C24.9128 11.5826 25.02 11.5915 25.1256 11.6077C25.6184 10.1858 25.733 8.63473 25.4553 7.14166C25.1776 5.6486 24.5197 4.27728 23.5608 3.19312C22.9214 2.46335 22.1587 1.8831 21.3169 1.48616C20.4752 1.08922 19.5713 0.88351 18.6578 0.881012C17.7443 0.878514 16.8395 1.07927 15.996 1.47161C15.1525 1.86394 14.3873 2.44001 13.7448 3.16628L12.7912 4.24539L11.8232 3.15375ZM12.0888 25.5466L4.48076 16.9513H6.08236C6.5531 16.9512 7.01341 16.7962 7.40601 16.5057C7.7986 16.2152 8.10615 15.8019 8.29036 15.3174L8.77996 14.0289L10.588 18.8787C10.7575 19.3331 11.0354 19.7266 11.3915 20.0161C11.7475 20.3057 12.1679 20.4802 12.6066 20.5204C13.0453 20.5607 13.4855 20.4652 13.879 20.2445C14.2725 20.0237 14.6041 19.6862 14.8376 19.2688L17.1256 15.176L17.7976 16.035C18.0227 16.3227 18.3002 16.5533 18.6114 16.7113C18.9227 16.8693 19.2605 16.9511 19.6024 16.9513H21.2088L13.596 25.5466C13.4974 25.6581 13.3801 25.7467 13.2507 25.8072C13.1214 25.8676 12.9826 25.8988 12.8424 25.8988C12.7022 25.8988 12.5634 25.8676 12.434 25.8072C12.3046 25.7467 12.1873 25.6581 12.0888 25.5466ZM9.54156 6.7651C9.48119 6.60231 9.37918 6.4631 9.24834 6.36491C9.1175 6.26672 8.96365 6.21394 8.80609 6.21317C8.64853 6.21241 8.49427 6.2637 8.36268 6.36061C8.23108 6.45753 8.128 6.59575 8.06636 6.75794L5.55436 13.3722H0.802363C0.590189 13.3722 0.386707 13.4664 0.236677 13.6342C0.0866483 13.802 0.00236268 14.0296 0.00236268 14.2669C0.00236268 14.5043 0.0866483 14.7319 0.236677 14.8997C0.386707 15.0675 0.590189 15.1617 0.802363 15.1617H6.08236C6.23922 15.1617 6.39261 15.1102 6.52347 15.0134C6.65433 14.9167 6.75688 14.7791 6.81836 14.6177L8.79436 9.41544L12.0632 18.1897C12.1195 18.3415 12.2121 18.473 12.3309 18.5698C12.4496 18.6666 12.5899 18.7249 12.7364 18.7384C12.8828 18.7519 13.0297 18.72 13.161 18.6463C13.2924 18.5725 13.403 18.4597 13.4808 18.3203L16.9096 12.1839L19.0008 14.8557C19.0758 14.9517 19.1682 15.0287 19.272 15.0815C19.3757 15.1342 19.4884 15.1616 19.6024 15.1617H24.8024C25.0145 15.1617 25.218 15.0675 25.368 14.8997C25.5181 14.7319 25.6024 14.5043 25.6024 14.2669C25.6024 14.0296 25.5181 13.802 25.368 13.6342C25.218 13.4664 25.0145 13.3722 24.8024 13.3722H19.9656L17.4056 10.0973C17.3233 9.99199 17.2201 9.90975 17.1042 9.85714C16.9884 9.80454 16.8632 9.78303 16.7386 9.79434C16.614 9.80565 16.4935 9.84946 16.3867 9.92227C16.28 9.99508 16.19 10.0949 16.124 10.2136L12.9448 15.9026L9.54156 6.7651Z" fill="white"/>
</svg>
